<mxfile host="Electron" modified="2023-06-18T20:06:39.691Z" agent="Mozilla/5.0 (Macintosh; Intel Mac OS X 10_15_7) AppleWebKit/537.36 (KHTML, like Gecko) draw.io/21.2.8 Chrome/112.0.5615.165 Electron/24.2.0 Safari/537.36" etag="MVLkwziPcv0eTk13WyRT" version="21.2.8" type="device">
  <diagram id="prtHgNgQTEPvFCAcTncT" name="Page-1">
    <mxGraphModel dx="2735" dy="1348" grid="1" gridSize="10" guides="1" tooltips="1" connect="1" arrows="1" fold="1" page="1" pageScale="1" pageWidth="827" pageHeight="1169" math="0" shadow="0">
      <root>
        <mxCell id="0" />
        <mxCell id="1" parent="0" />
        <mxCell id="dNxyNK7c78bLwvsdeMH5-11" value="&lt;font style=&quot;font-size: 37px;&quot;&gt;INVERTE FOODTECH INC.&lt;/font&gt;" style="swimlane;html=1;startSize=80;horizontal=1;containerType=tree;glass=0;strokeWidth=2;fillColor=#ffe6cc;strokeColor=#d79b00;" parent="1" vertex="1">
          <mxGeometry x="-180" y="20" width="1310" height="940" as="geometry" />
        </mxCell>
        <mxCell id="U8MkMK5E624Xjxl5461s-17" value="" style="group" vertex="1" connectable="0" parent="dNxyNK7c78bLwvsdeMH5-11">
          <mxGeometry x="520" y="140" width="300" height="260" as="geometry" />
        </mxCell>
        <mxCell id="U8MkMK5E624Xjxl5461s-14" value="" style="rounded=0;whiteSpace=wrap;html=1;" vertex="1" parent="U8MkMK5E624Xjxl5461s-17">
          <mxGeometry width="300" height="260" as="geometry" />
        </mxCell>
        <mxCell id="U8MkMK5E624Xjxl5461s-15" value="Corporate Operations" style="text;html=1;strokeColor=none;fillColor=none;align=center;verticalAlign=middle;whiteSpace=wrap;rounded=0;strokeWidth=1;fontSize=20;fontStyle=0" vertex="1" parent="U8MkMK5E624Xjxl5461s-17">
          <mxGeometry x="130" y="25" width="60" height="30" as="geometry" />
        </mxCell>
        <mxCell id="U8MkMK5E624Xjxl5461s-19" value="&lt;b&gt;Garrett&lt;/b&gt;" style="ellipse;whiteSpace=wrap;html=1;aspect=fixed;strokeWidth=1;fontSize=17;" vertex="1" parent="U8MkMK5E624Xjxl5461s-17">
          <mxGeometry x="150" y="80" width="80" height="80" as="geometry" />
        </mxCell>
        <mxCell id="U8MkMK5E624Xjxl5461s-20" value="&lt;b&gt;Johan&lt;/b&gt;" style="ellipse;whiteSpace=wrap;html=1;aspect=fixed;strokeWidth=1;fontSize=17;" vertex="1" parent="U8MkMK5E624Xjxl5461s-17">
          <mxGeometry x="60" y="170" width="80" height="80" as="geometry" />
        </mxCell>
        <mxCell id="U8MkMK5E624Xjxl5461s-21" value="&lt;b&gt;Rohan&lt;/b&gt;" style="ellipse;whiteSpace=wrap;html=1;aspect=fixed;strokeWidth=1;fontSize=17;" vertex="1" parent="U8MkMK5E624Xjxl5461s-17">
          <mxGeometry x="170" y="170" width="80" height="80" as="geometry" />
        </mxCell>
        <mxCell id="U8MkMK5E624Xjxl5461s-38" value="&lt;b&gt;Neil&lt;/b&gt;" style="ellipse;whiteSpace=wrap;html=1;aspect=fixed;strokeWidth=1;fontSize=17;" vertex="1" parent="U8MkMK5E624Xjxl5461s-17">
          <mxGeometry x="50" y="80" width="80" height="80" as="geometry" />
        </mxCell>
        <mxCell id="U8MkMK5E624Xjxl5461s-22" value="" style="group" vertex="1" connectable="0" parent="dNxyNK7c78bLwvsdeMH5-11">
          <mxGeometry x="50" y="140" width="300" height="260" as="geometry" />
        </mxCell>
        <mxCell id="U8MkMK5E624Xjxl5461s-2" value="" style="rounded=0;whiteSpace=wrap;html=1;" vertex="1" parent="U8MkMK5E624Xjxl5461s-22">
          <mxGeometry width="300" height="260" as="geometry" />
        </mxCell>
        <mxCell id="U8MkMK5E624Xjxl5461s-3" value="Advisors Europe" style="text;html=1;strokeColor=none;fillColor=none;align=center;verticalAlign=middle;whiteSpace=wrap;rounded=0;strokeWidth=1;fontSize=20;fontStyle=0" vertex="1" parent="U8MkMK5E624Xjxl5461s-22">
          <mxGeometry x="124" y="20" width="60" height="30" as="geometry" />
        </mxCell>
        <mxCell id="U8MkMK5E624Xjxl5461s-4" value="&lt;b&gt;Vesa&lt;/b&gt;" style="ellipse;whiteSpace=wrap;html=1;aspect=fixed;strokeWidth=1;fontSize=17;" vertex="1" parent="U8MkMK5E624Xjxl5461s-22">
          <mxGeometry x="34" y="90" width="90" height="90" as="geometry" />
        </mxCell>
        <mxCell id="U8MkMK5E624Xjxl5461s-5" value="&lt;b&gt;FranÃ§ois&amp;nbsp;&lt;/b&gt;" style="ellipse;whiteSpace=wrap;html=1;aspect=fixed;strokeWidth=1;fontSize=17;" vertex="1" parent="U8MkMK5E624Xjxl5461s-22">
          <mxGeometry x="180" y="100" width="80" height="80" as="geometry" />
        </mxCell>
        <mxCell id="U8MkMK5E624Xjxl5461s-25" value="" style="group" vertex="1" connectable="0" parent="dNxyNK7c78bLwvsdeMH5-11">
          <mxGeometry x="520" y="610" width="300" height="260" as="geometry" />
        </mxCell>
        <mxCell id="U8MkMK5E624Xjxl5461s-9" value="" style="rounded=0;whiteSpace=wrap;html=1;" vertex="1" parent="U8MkMK5E624Xjxl5461s-25">
          <mxGeometry width="300" height="260" as="geometry" />
        </mxCell>
        <mxCell id="jXM_P56Kqkt2mH37Rr3L-33" value="Corporate Execution" style="text;html=1;strokeColor=none;fillColor=none;align=center;verticalAlign=middle;whiteSpace=wrap;rounded=0;strokeWidth=1;fontSize=20;fontStyle=0" parent="U8MkMK5E624Xjxl5461s-25" vertex="1">
          <mxGeometry x="120" y="30" width="60" height="30" as="geometry" />
        </mxCell>
        <mxCell id="U8MkMK5E624Xjxl5461s-11" value="&lt;b&gt;Johan&lt;/b&gt;" style="ellipse;whiteSpace=wrap;html=1;aspect=fixed;strokeWidth=1;fontSize=17;" vertex="1" parent="U8MkMK5E624Xjxl5461s-25">
          <mxGeometry x="40" y="120" width="80" height="80" as="geometry" />
        </mxCell>
        <mxCell id="U8MkMK5E624Xjxl5461s-12" value="&lt;b&gt;Rohan&lt;/b&gt;" style="ellipse;whiteSpace=wrap;html=1;aspect=fixed;strokeWidth=1;fontSize=17;" vertex="1" parent="U8MkMK5E624Xjxl5461s-25">
          <mxGeometry x="180" y="80" width="80" height="80" as="geometry" />
        </mxCell>
        <mxCell id="U8MkMK5E624Xjxl5461s-27" style="edgeStyle=orthogonalEdgeStyle;rounded=0;orthogonalLoop=1;jettySize=auto;html=1;entryX=0;entryY=0.5;entryDx=0;entryDy=0;" edge="1" parent="dNxyNK7c78bLwvsdeMH5-11" source="U8MkMK5E624Xjxl5461s-2" target="U8MkMK5E624Xjxl5461s-14">
          <mxGeometry relative="1" as="geometry" />
        </mxCell>
        <mxCell id="U8MkMK5E624Xjxl5461s-28" value="" style="whiteSpace=wrap;html=1;aspect=fixed;" vertex="1" parent="dNxyNK7c78bLwvsdeMH5-11">
          <mxGeometry x="920" y="610" width="260" height="260" as="geometry" />
        </mxCell>
        <mxCell id="U8MkMK5E624Xjxl5461s-29" value="Technology" style="text;html=1;strokeColor=none;fillColor=none;align=center;verticalAlign=middle;whiteSpace=wrap;rounded=0;strokeWidth=1;fontSize=20;fontStyle=0" vertex="1" parent="dNxyNK7c78bLwvsdeMH5-11">
          <mxGeometry x="1015" y="630" width="70" height="30" as="geometry" />
        </mxCell>
        <mxCell id="U8MkMK5E624Xjxl5461s-30" value="&lt;b&gt;Neil&lt;/b&gt;" style="ellipse;whiteSpace=wrap;html=1;aspect=fixed;strokeWidth=1;fontSize=17;" vertex="1" parent="dNxyNK7c78bLwvsdeMH5-11">
          <mxGeometry x="1015" y="710" width="80" height="80" as="geometry" />
        </mxCell>
        <mxCell id="U8MkMK5E624Xjxl5461s-31" style="edgeStyle=orthogonalEdgeStyle;rounded=0;orthogonalLoop=1;jettySize=auto;html=1;entryX=0;entryY=0.5;entryDx=0;entryDy=0;" edge="1" parent="dNxyNK7c78bLwvsdeMH5-11" source="U8MkMK5E624Xjxl5461s-9" target="U8MkMK5E624Xjxl5461s-28">
          <mxGeometry relative="1" as="geometry" />
        </mxCell>
        <mxCell id="U8MkMK5E624Xjxl5461s-33" style="edgeStyle=orthogonalEdgeStyle;rounded=0;orthogonalLoop=1;jettySize=auto;html=1;" edge="1" parent="dNxyNK7c78bLwvsdeMH5-11" source="U8MkMK5E624Xjxl5461s-14" target="U8MkMK5E624Xjxl5461s-9">
          <mxGeometry relative="1" as="geometry" />
        </mxCell>
        <mxCell id="U8MkMK5E624Xjxl5461s-34" value="" style="rounded=0;whiteSpace=wrap;html=1;" vertex="1" parent="dNxyNK7c78bLwvsdeMH5-11">
          <mxGeometry x="35" y="615" width="330" height="250" as="geometry" />
        </mxCell>
        <mxCell id="U8MkMK5E624Xjxl5461s-24" value="" style="group" vertex="1" connectable="0" parent="dNxyNK7c78bLwvsdeMH5-11">
          <mxGeometry x="960" y="140" width="300" height="260" as="geometry" />
        </mxCell>
        <mxCell id="U8MkMK5E624Xjxl5461s-6" value="" style="rounded=0;whiteSpace=wrap;html=1;" vertex="1" parent="U8MkMK5E624Xjxl5461s-24">
          <mxGeometry width="300" height="260" as="geometry" />
        </mxCell>
        <mxCell id="U8MkMK5E624Xjxl5461s-23" value="" style="group" vertex="1" connectable="0" parent="U8MkMK5E624Xjxl5461s-24">
          <mxGeometry x="49.5" y="50" width="201" height="140" as="geometry" />
        </mxCell>
        <mxCell id="jXM_P56Kqkt2mH37Rr3L-34" value="&lt;b&gt;Christian&lt;/b&gt;" style="ellipse;whiteSpace=wrap;html=1;aspect=fixed;strokeWidth=1;fontSize=17;" parent="U8MkMK5E624Xjxl5461s-23" vertex="1">
          <mxGeometry y="60" width="80" height="80" as="geometry" />
        </mxCell>
        <mxCell id="U8MkMK5E624Xjxl5461s-7" value="Advisors America" style="text;html=1;strokeColor=none;fillColor=none;align=center;verticalAlign=middle;whiteSpace=wrap;rounded=0;strokeWidth=1;fontSize=20;fontStyle=0" vertex="1" parent="U8MkMK5E624Xjxl5461s-23">
          <mxGeometry x="85" width="60" height="30" as="geometry" />
        </mxCell>
        <mxCell id="U8MkMK5E624Xjxl5461s-8" value="&lt;b&gt;Sebastian&lt;/b&gt;" style="ellipse;whiteSpace=wrap;html=1;aspect=fixed;strokeWidth=1;fontSize=17;" vertex="1" parent="U8MkMK5E624Xjxl5461s-23">
          <mxGeometry x="121" y="60" width="80" height="80" as="geometry" />
        </mxCell>
        <mxCell id="U8MkMK5E624Xjxl5461s-35" style="edgeStyle=orthogonalEdgeStyle;rounded=0;orthogonalLoop=1;jettySize=auto;html=1;entryX=0.75;entryY=0;entryDx=0;entryDy=0;" edge="1" parent="dNxyNK7c78bLwvsdeMH5-11" source="U8MkMK5E624Xjxl5461s-6" target="U8MkMK5E624Xjxl5461s-9">
          <mxGeometry relative="1" as="geometry">
            <Array as="points">
              <mxPoint x="1110" y="470" />
              <mxPoint x="745" y="470" />
            </Array>
          </mxGeometry>
        </mxCell>
        <mxCell id="U8MkMK5E624Xjxl5461s-36" value="Business" style="text;html=1;strokeColor=none;fillColor=none;align=center;verticalAlign=middle;whiteSpace=wrap;rounded=0;strokeWidth=1;fontSize=20;fontStyle=0" vertex="1" parent="dNxyNK7c78bLwvsdeMH5-11">
          <mxGeometry x="180" y="640" width="70" height="30" as="geometry" />
        </mxCell>
        <mxCell id="U8MkMK5E624Xjxl5461s-37" style="edgeStyle=orthogonalEdgeStyle;rounded=0;orthogonalLoop=1;jettySize=auto;html=1;entryX=1;entryY=0.5;entryDx=0;entryDy=0;" edge="1" parent="dNxyNK7c78bLwvsdeMH5-11" source="U8MkMK5E624Xjxl5461s-9" target="U8MkMK5E624Xjxl5461s-34">
          <mxGeometry relative="1" as="geometry" />
        </mxCell>
        <mxCell id="U8MkMK5E624Xjxl5461s-39" value="&lt;b&gt;Garrett&lt;/b&gt;" style="ellipse;whiteSpace=wrap;html=1;aspect=fixed;strokeWidth=1;fontSize=17;" vertex="1" parent="dNxyNK7c78bLwvsdeMH5-11">
          <mxGeometry x="160" y="700" width="80" height="80" as="geometry" />
        </mxCell>
        <mxCell id="U8MkMK5E624Xjxl5461s-40" style="edgeStyle=orthogonalEdgeStyle;rounded=0;orthogonalLoop=1;jettySize=auto;html=1;entryX=0.5;entryY=0;entryDx=0;entryDy=0;" edge="1" parent="dNxyNK7c78bLwvsdeMH5-11" source="U8MkMK5E624Xjxl5461s-2" target="U8MkMK5E624Xjxl5461s-34">
          <mxGeometry relative="1" as="geometry" />
        </mxCell>
      </root>
    </mxGraphModel>
  </diagram>
</mxfile>
